<?xml version="1.0" encoding="UTF-8" standalone="no"?><svg xmlns="http://www.w3.org/2000/svg" xmlns:xlink="http://www.w3.org/1999/xlink" contentScriptType="application/ecmascript" contentStyleType="text/css" height="978px" preserveAspectRatio="none" style="width:2005px;height:978px;" version="1.1" viewBox="0 0 2005 978" width="2005.5px" zoomAndPan="magnify"><defs><filter height="300%" id="f1593bxvm3y3yc" width="300%" x="-1" y="-1"><feGaussianBlur result="blurOut" stdDeviation="3.0"/><feColorMatrix in="blurOut" result="blurOut2" type="matrix" values="0 0 0 0 0 0 0 0 0 0 0 0 0 0 0 0 0 0 .4 0"/><feOffset dx="6.0" dy="6.0" in="blurOut2" result="blurOut3"/><feBlend in="SourceGraphic" in2="blurOut3" mode="normal"/></filter></defs><g><rect fill="#FFFFFF" filter="url(#f1593bxvm3y3yc)" height="43.6719" style="stroke:#A80036;stroke-width:1.5;" width="15" x="297" y="124.9453"/><rect fill="#FFFFFF" filter="url(#f1593bxvm3y3yc)" height="475.7194" style="stroke:#A80036;stroke-width:1.5;" width="15" x="502.5" y="189.6172"/><rect fill="#FFFFFF" filter="url(#f1593bxvm3y3yc)" height="174.6877" style="stroke:#A80036;stroke-width:1.5;" width="15" x="705.75" y="674.3366"/><rect fill="#FFFFFF" filter="url(#f1593bxvm3y3yc)" height="131.0158" style="stroke:#A80036;stroke-width:1.5;" width="15" x="915" y="305.6331"/><rect fill="#FFFFFF" filter="url(#f1593bxvm3y3yc)" height="43.6719" style="stroke:#A80036;stroke-width:1.5;" width="15" x="1310.25" y="480.3208"/><rect fill="#FFFFFF" filter="url(#f1593bxvm3y3yc)" height="64.6719" style="stroke:#A80036;stroke-width:1.5;" width="15" x="1482" y="578.1647"/><rect fill="#FFFFFF" filter="url(#f1593bxvm3y3yc)" height="442.7194" style="stroke:#000000;stroke-width:3.0;" width="1404" x="388.5" y="212.1172"/><rect fill="#FFFFFF" filter="url(#f1593bxvm3y3yc)" height="287.7036" style="stroke:#000000;stroke-width:3.0;" width="1017" x="403.5" y="248.2892"/><line style="stroke:#A80036;stroke-width:1.5;stroke-dasharray:5.0,5.0;" x1="99" x2="99" y1="100.9453" y2="876.0244"/><line style="stroke:#A80036;stroke-width:1.5;stroke-dasharray:5.0,5.0;" x1="304.5" x2="304.5" y1="100.9453" y2="876.0244"/><line style="stroke:#A80036;stroke-width:1.5;stroke-dasharray:5.0,5.0;" x1="510" x2="510" y1="100.9453" y2="876.0244"/><line style="stroke:#A80036;stroke-width:1.5;stroke-dasharray:5.0,5.0;" x1="712.5" x2="712.5" y1="100.9453" y2="876.0244"/><line style="stroke:#A80036;stroke-width:1.5;stroke-dasharray:5.0,5.0;" x1="922.5" x2="922.5" y1="100.9453" y2="876.0244"/><line style="stroke:#A80036;stroke-width:1.5;stroke-dasharray:5.0,5.0;" x1="1158" x2="1158" y1="100.9453" y2="876.0244"/><line style="stroke:#A80036;stroke-width:1.5;stroke-dasharray:5.0,5.0;" x1="1317" x2="1317" y1="100.9453" y2="876.0244"/><line style="stroke:#A80036;stroke-width:1.5;stroke-dasharray:5.0,5.0;" x1="1489.5" x2="1489.5" y1="100.9453" y2="876.0244"/><line style="stroke:#A80036;stroke-width:1.5;stroke-dasharray:5.0,5.0;" x1="1702.5" x2="1702.5" y1="100.9453" y2="876.0244"/><line style="stroke:#A80036;stroke-width:1.5;stroke-dasharray:5.0,5.0;" x1="1934.25" x2="1934.25" y1="100.9453" y2="876.0244"/><text fill="#000000" font-family="sans-serif" font-size="21" lengthAdjust="spacing" textLength="174" x="7.5" y="95.9927">importLinesFlow</text><ellipse cx="99" cy="52.5" fill="#FEFECE" filter="url(#f1593bxvm3y3yc)" rx="18" ry="18" style="stroke:#A80036;stroke-width:3.0;"/><polygon fill="#A80036" points="93,34.5,102,27,99,34.5,102,42,93,34.5" style="stroke:#A80036;stroke-width:1.5;"/><text fill="#000000" font-family="sans-serif" font-size="21" lengthAdjust="spacing" textLength="174" x="7.5" y="894.017">importLinesFlow</text><ellipse cx="99" cy="922.9697" fill="#FEFECE" filter="url(#f1593bxvm3y3yc)" rx="18" ry="18" style="stroke:#A80036;stroke-width:3.0;"/><polygon fill="#A80036" points="93,904.9697,102,897.4697,99,904.9697,102,912.4697,93,904.9697" style="stroke:#A80036;stroke-width:1.5;"/><text fill="#000000" font-family="sans-serif" font-size="21" lengthAdjust="spacing" textLength="189" x="205.5" y="95.9927">prepareLinesStep</text><ellipse cx="304.5" cy="52.5" fill="#FEFECE" filter="url(#f1593bxvm3y3yc)" rx="18" ry="18" style="stroke:#A80036;stroke-width:3.0;"/><polygon fill="#A80036" points="298.5,34.5,307.5,27,304.5,34.5,307.5,42,298.5,34.5" style="stroke:#A80036;stroke-width:1.5;"/><text fill="#000000" font-family="sans-serif" font-size="21" lengthAdjust="spacing" textLength="189" x="205.5" y="894.017">prepareLinesStep</text><ellipse cx="304.5" cy="922.9697" fill="#FEFECE" filter="url(#f1593bxvm3y3yc)" rx="18" ry="18" style="stroke:#A80036;stroke-width:3.0;"/><polygon fill="#A80036" points="298.5,904.9697,307.5,897.4697,304.5,904.9697,307.5,912.4697,298.5,904.9697" style="stroke:#A80036;stroke-width:1.5;"/><text fill="#000000" font-family="sans-serif" font-size="21" lengthAdjust="spacing" textLength="174" x="418.5" y="95.9927">importLinesStep</text><ellipse cx="510" cy="52.5" fill="#FEFECE" filter="url(#f1593bxvm3y3yc)" rx="18" ry="18" style="stroke:#A80036;stroke-width:3.0;"/><polygon fill="#A80036" points="504,34.5,513,27,510,34.5,513,42,504,34.5" style="stroke:#A80036;stroke-width:1.5;"/><text fill="#000000" font-family="sans-serif" font-size="21" lengthAdjust="spacing" textLength="174" x="418.5" y="894.017">importLinesStep</text><ellipse cx="510" cy="922.9697" fill="#FEFECE" filter="url(#f1593bxvm3y3yc)" rx="18" ry="18" style="stroke:#A80036;stroke-width:3.0;"/><polygon fill="#A80036" points="504,904.9697,513,897.4697,510,904.9697,513,912.4697,504,904.9697" style="stroke:#A80036;stroke-width:1.5;"/><text fill="#000000" font-family="sans-serif" font-size="21" lengthAdjust="spacing" textLength="184.5" x="616.5" y="95.9927">commitLinesStep</text><ellipse cx="713.25" cy="52.5" fill="#FEFECE" filter="url(#f1593bxvm3y3yc)" rx="18" ry="18" style="stroke:#A80036;stroke-width:3.0;"/><polygon fill="#A80036" points="707.25,34.5,716.25,27,713.25,34.5,716.25,42,707.25,34.5" style="stroke:#A80036;stroke-width:1.5;"/><text fill="#000000" font-family="sans-serif" font-size="21" lengthAdjust="spacing" textLength="184.5" x="616.5" y="894.017">commitLinesStep</text><ellipse cx="713.25" cy="922.9697" fill="#FEFECE" filter="url(#f1593bxvm3y3yc)" rx="18" ry="18" style="stroke:#A80036;stroke-width:3.0;"/><polygon fill="#A80036" points="707.25,904.9697,716.25,897.4697,713.25,904.9697,716.25,912.4697,707.25,904.9697" style="stroke:#A80036;stroke-width:1.5;"/><rect fill="#FEFECE" filter="url(#f1593bxvm3y3yc)" height="45.4453" style="stroke:#A80036;stroke-width:2.25;" width="189" x="825" y="48"/><text fill="#000000" font-family="sans-serif" font-size="21" lengthAdjust="spacing" textLength="168" x="835.5" y="77.9927">LineRowReader</text><rect fill="#FEFECE" filter="url(#f1593bxvm3y3yc)" height="45.4453" style="stroke:#A80036;stroke-width:2.25;" width="189" x="825" y="874.5244"/><text fill="#000000" font-family="sans-serif" font-size="21" lengthAdjust="spacing" textLength="168" x="835.5" y="904.517">LineRowReader</text><text fill="#000000" font-family="sans-serif" font-size="21" lengthAdjust="spacing" textLength="105" x="1101" y="95.9927">SourceDb</text><path d="M1131,22.5 C1131,7.5 1158,7.5 1158,7.5 C1158,7.5 1185,7.5 1185,22.5 L1185,61.5 C1185,76.5 1158,76.5 1158,76.5 C1158,76.5 1131,76.5 1131,61.5 L1131,22.5 " fill="#FEFECE" filter="url(#f1593bxvm3y3yc)" style="stroke:#000000;stroke-width:2.25;"/><path d="M1131,22.5 C1131,37.5 1158,37.5 1158,37.5 C1158,37.5 1185,37.5 1185,22.5 " fill="none" style="stroke:#000000;stroke-width:2.25;"/><text fill="#000000" font-family="sans-serif" font-size="21" lengthAdjust="spacing" textLength="105" x="1101" y="894.017">SourceDb</text><path d="M1131,913.9697 C1131,898.9697 1158,898.9697 1158,898.9697 C1158,898.9697 1185,898.9697 1185,913.9697 L1185,952.9697 C1185,967.9697 1158,967.9697 1158,967.9697 C1158,967.9697 1131,967.9697 1131,952.9697 L1131,913.9697 " fill="#FEFECE" filter="url(#f1593bxvm3y3yc)" style="stroke:#000000;stroke-width:2.25;"/><path d="M1131,913.9697 C1131,928.9697 1158,928.9697 1158,928.9697 C1158,928.9697 1185,928.9697 1185,913.9697 " fill="none" style="stroke:#000000;stroke-width:2.25;"/><rect fill="#FEFECE" filter="url(#f1593bxvm3y3yc)" height="45.4453" style="stroke:#A80036;stroke-width:2.25;" width="169.5" x="1230" y="48"/><text fill="#000000" font-family="sans-serif" font-size="21" lengthAdjust="spacing" textLength="148.5" x="1240.5" y="77.9927">LineProcessor</text><rect fill="#FEFECE" filter="url(#f1593bxvm3y3yc)" height="45.4453" style="stroke:#A80036;stroke-width:2.25;" width="169.5" x="1230" y="874.5244"/><text fill="#000000" font-family="sans-serif" font-size="21" lengthAdjust="spacing" textLength="148.5" x="1240.5" y="904.517">LineProcessor</text><rect fill="#FEFECE" filter="url(#f1593bxvm3y3yc)" height="45.4453" style="stroke:#A80036;stroke-width:2.25;" width="132" x="1420.5" y="48"/><text fill="#000000" font-family="sans-serif" font-size="21" lengthAdjust="spacing" textLength="111" x="1431" y="77.9927">LineWriter</text><rect fill="#FEFECE" filter="url(#f1593bxvm3y3yc)" height="45.4453" style="stroke:#A80036;stroke-width:2.25;" width="132" x="1420.5" y="874.5244"/><text fill="#000000" font-family="sans-serif" font-size="21" lengthAdjust="spacing" textLength="111" x="1431" y="904.517">LineWriter</text><text fill="#000000" font-family="sans-serif" font-size="21" lengthAdjust="spacing" textLength="141" x="1627.5" y="95.9927">StagingTable</text><path d="M1675.5,22.5 C1675.5,7.5 1702.5,7.5 1702.5,7.5 C1702.5,7.5 1729.5,7.5 1729.5,22.5 L1729.5,61.5 C1729.5,76.5 1702.5,76.5 1702.5,76.5 C1702.5,76.5 1675.5,76.5 1675.5,61.5 L1675.5,22.5 " fill="#FEFECE" filter="url(#f1593bxvm3y3yc)" style="stroke:#000000;stroke-width:2.25;"/><path d="M1675.5,22.5 C1675.5,37.5 1702.5,37.5 1702.5,37.5 C1702.5,37.5 1729.5,37.5 1729.5,22.5 " fill="none" style="stroke:#000000;stroke-width:2.25;"/><text fill="#000000" font-family="sans-serif" font-size="21" lengthAdjust="spacing" textLength="141" x="1627.5" y="894.017">StagingTable</text><path d="M1675.5,913.9697 C1675.5,898.9697 1702.5,898.9697 1702.5,898.9697 C1702.5,898.9697 1729.5,898.9697 1729.5,913.9697 L1729.5,952.9697 C1729.5,967.9697 1702.5,967.9697 1702.5,967.9697 C1702.5,967.9697 1675.5,967.9697 1675.5,952.9697 L1675.5,913.9697 " fill="#FEFECE" filter="url(#f1593bxvm3y3yc)" style="stroke:#000000;stroke-width:2.25;"/><path d="M1675.5,913.9697 C1675.5,928.9697 1702.5,928.9697 1702.5,928.9697 C1702.5,928.9697 1729.5,928.9697 1729.5,913.9697 " fill="none" style="stroke:#000000;stroke-width:2.25;"/><text fill="#000000" font-family="sans-serif" font-size="21" lengthAdjust="spacing" textLength="130.5" x="1865.25" y="95.9927">TargetTable</text><path d="M1908,22.5 C1908,7.5 1935,7.5 1935,7.5 C1935,7.5 1962,7.5 1962,22.5 L1962,61.5 C1962,76.5 1935,76.5 1935,76.5 C1935,76.5 1908,76.5 1908,61.5 L1908,22.5 " fill="#FEFECE" filter="url(#f1593bxvm3y3yc)" style="stroke:#000000;stroke-width:2.25;"/><path d="M1908,22.5 C1908,37.5 1935,37.5 1935,37.5 C1935,37.5 1962,37.5 1962,22.5 " fill="none" style="stroke:#000000;stroke-width:2.25;"/><text fill="#000000" font-family="sans-serif" font-size="21" lengthAdjust="spacing" textLength="130.5" x="1865.25" y="894.017">TargetTable</text><path d="M1908,913.9697 C1908,898.9697 1935,898.9697 1935,898.9697 C1935,898.9697 1962,898.9697 1962,913.9697 L1962,952.9697 C1962,967.9697 1935,967.9697 1935,967.9697 C1935,967.9697 1908,967.9697 1908,952.9697 L1908,913.9697 " fill="#FEFECE" filter="url(#f1593bxvm3y3yc)" style="stroke:#000000;stroke-width:2.25;"/><path d="M1908,913.9697 C1908,928.9697 1935,928.9697 1935,928.9697 C1935,928.9697 1962,928.9697 1962,913.9697 " fill="none" style="stroke:#000000;stroke-width:2.25;"/><rect fill="#FFFFFF" filter="url(#f1593bxvm3y3yc)" height="43.6719" style="stroke:#A80036;stroke-width:1.5;" width="15" x="297" y="124.9453"/><rect fill="#FFFFFF" filter="url(#f1593bxvm3y3yc)" height="475.7194" style="stroke:#A80036;stroke-width:1.5;" width="15" x="502.5" y="189.6172"/><rect fill="#FFFFFF" filter="url(#f1593bxvm3y3yc)" height="174.6877" style="stroke:#A80036;stroke-width:1.5;" width="15" x="705.75" y="674.3366"/><rect fill="#FFFFFF" filter="url(#f1593bxvm3y3yc)" height="131.0158" style="stroke:#A80036;stroke-width:1.5;" width="15" x="915" y="305.6331"/><rect fill="#FFFFFF" filter="url(#f1593bxvm3y3yc)" height="43.6719" style="stroke:#A80036;stroke-width:1.5;" width="15" x="1310.25" y="480.3208"/><rect fill="#FFFFFF" filter="url(#f1593bxvm3y3yc)" height="64.6719" style="stroke:#A80036;stroke-width:1.5;" width="15" x="1482" y="578.1647"/><polygon fill="#A80036" points="279,118.9453,294,124.9453,279,130.9453,285,124.9453" style="stroke:#A80036;stroke-width:1.5;"/><line style="stroke:#A80036;stroke-width:1.5;" x1="99" x2="288" y1="124.9453" y2="124.9453"/><polygon fill="#A80036" points="1684.5,162.6172,1699.5,168.6172,1684.5,174.6172,1690.5,168.6172" style="stroke:#A80036;stroke-width:1.5;"/><line style="stroke:#A80036;stroke-width:1.5;" x1="304.5" x2="1693.5" y1="168.6172" y2="168.6172"/><text fill="#000000" font-family="sans-serif" font-size="19.5" font-style="italic" lengthAdjust="spacing" textLength="81" x="315" y="161.0239">truncate</text><polygon fill="#A80036" points="484.5,183.6172,499.5,189.6172,484.5,195.6172,490.5,189.6172" style="stroke:#A80036;stroke-width:1.5;"/><line style="stroke:#A80036;stroke-width:1.5;" x1="99" x2="493.5" y1="189.6172" y2="189.6172"/><path d="M388.5,212.1172 L717,212.1172 L717,222.6172 L702,237.6172 L388.5,237.6172 L388.5,212.1172 " fill="#EEEEEE" style="stroke:#000000;stroke-width:1.5;"/><rect fill="none" height="442.7194" style="stroke:#000000;stroke-width:3.0;" width="1404" x="388.5" y="212.1172"/><text fill="#000000" font-family="sans-serif" font-size="19.5" font-weight="bold" lengthAdjust="spacing" textLength="261" x="411" y="231.6958">Read all rows in chunks</text><path d="M403.5,248.2892 L904.5,248.2892 L904.5,258.7892 L889.5,273.7892 L403.5,273.7892 L403.5,248.2892 " fill="#EEEEEE" style="stroke:#000000;stroke-width:1.5;"/><rect fill="none" height="287.7036" style="stroke:#000000;stroke-width:3.0;" width="1017" x="403.5" y="248.2892"/><text fill="#000000" font-family="sans-serif" font-size="19.5" font-weight="bold" lengthAdjust="spacing" textLength="433.5" x="426" y="267.8678">Read and process chunk of N elements</text><polygon fill="#A80036" points="897,299.6331,912,305.6331,897,311.6331,903,305.6331" style="stroke:#A80036;stroke-width:1.5;"/><line style="stroke:#A80036;stroke-width:1.5;" x1="517.5" x2="906" y1="305.6331" y2="305.6331"/><text fill="#000000" font-family="sans-serif" font-size="19.5" font-style="italic" lengthAdjust="spacing" textLength="58.5" x="528" y="298.0397">read()</text><polygon fill="#A80036" points="1140,343.305,1155,349.305,1140,355.305,1146,349.305" style="stroke:#A80036;stroke-width:1.5;"/><line style="stroke:#A80036;stroke-width:1.5;" x1="930" x2="1149" y1="349.305" y2="349.305"/><text fill="#000000" font-family="monospace" font-size="19.5" lengthAdjust="spacing" textLength="192" x="940.5" y="341.7116">import_lines.sql</text><polygon fill="#A80036" points="946.5,386.9769,931.5,392.9769,946.5,398.9769,940.5,392.9769" style="stroke:#A80036;stroke-width:1.5;"/><line style="stroke:#A80036;stroke-width:1.5;" x1="937.5" x2="1156.5" y1="392.9769" y2="392.9769"/><text fill="#000000" font-family="monospace" font-size="19.5" lengthAdjust="spacing" textLength="108" x="955.5" y="385.3836">ResultSet</text><polygon fill="#A80036" points="534,430.6489,519,436.6489,534,442.6489,528,436.6489" style="stroke:#A80036;stroke-width:1.5;"/><line style="stroke:#A80036;stroke-width:1.5;" x1="525" x2="921" y1="436.6489" y2="436.6489"/><text fill="#000000" font-family="monospace" font-size="19.5" lengthAdjust="spacing" textLength="84" x="543" y="429.0555">LineRow</text><text fill="#000000" font-family="sans-serif" font-size="19.5" lengthAdjust="spacing" textLength="66" x="633" y="429.0555">| "null"</text><polygon fill="#A80036" points="1292.25,474.3208,1307.25,480.3208,1292.25,486.3208,1298.25,480.3208" style="stroke:#A80036;stroke-width:1.5;"/><line style="stroke:#A80036;stroke-width:1.5;" x1="517.5" x2="1301.25" y1="480.3208" y2="480.3208"/><text fill="#000000" font-family="sans-serif" font-size="19.5" font-style="italic" lengthAdjust="spacing" textLength="82.5" x="528" y="472.7275">process(</text><text fill="#000000" font-family="monospace" font-size="19.5" lengthAdjust="spacing" textLength="84" x="610.5" y="472.7275">LineRow</text><text fill="#000000" font-family="sans-serif" font-size="19.5" font-style="italic" lengthAdjust="spacing" textLength="7.5" x="694.5" y="472.7275">)</text><polygon fill="#A80036" points="534,517.9927,519,523.9927,534,529.9927,528,523.9927" style="stroke:#A80036;stroke-width:1.5;"/><line style="stroke:#A80036;stroke-width:1.5;stroke-dasharray:2.0,2.0;" x1="525" x2="1316.25" y1="523.9927" y2="523.9927"/><text fill="#000000" font-family="monospace" font-size="19.5" lengthAdjust="spacing" textLength="180" x="543" y="516.3994">PersistableLine</text><polygon fill="#A80036" points="1464,572.1647,1479,578.1647,1464,584.1647,1470,578.1647" style="stroke:#A80036;stroke-width:1.5;"/><line style="stroke:#A80036;stroke-width:1.5;" x1="517.5" x2="1473" y1="578.1647" y2="578.1647"/><text fill="#000000" font-family="sans-serif" font-size="19.5" font-style="italic" lengthAdjust="spacing" textLength="57" x="528" y="570.5713">write(</text><text fill="#000000" font-family="monospace" font-size="19.5" lengthAdjust="spacing" textLength="264" x="585" y="570.5713">Chunk&lt;PersistableLine&gt;</text><text fill="#000000" font-family="sans-serif" font-size="19.5" font-style="italic" lengthAdjust="spacing" textLength="7.5" x="849" y="570.5713">)</text><polygon fill="#A80036" points="1684.5,615.8366,1699.5,621.8366,1684.5,627.8366,1690.5,621.8366" style="stroke:#A80036;stroke-width:1.5;"/><line style="stroke:#A80036;stroke-width:1.5;" x1="1497" x2="1693.5" y1="621.8366" y2="621.8366"/><text fill="#000000" font-family="sans-serif" font-size="19.5" lengthAdjust="spacing" textLength="169.5" x="1507.5" y="614.2433">JDBC batch insert</text><polygon fill="#A80036" points="534,636.8366,519,642.8366,534,648.8366,528,642.8366" style="stroke:#A80036;stroke-width:1.5;"/><line style="stroke:#A80036;stroke-width:1.5;stroke-dasharray:2.0,2.0;" x1="525" x2="1488" y1="642.8366" y2="642.8366"/><polygon fill="#A80036" points="687.75,668.3366,702.75,674.3366,687.75,680.3366,693.75,674.3366" style="stroke:#A80036;stroke-width:1.5;"/><line style="stroke:#A80036;stroke-width:1.5;" x1="99" x2="696.75" y1="674.3366" y2="674.3366"/><polygon fill="#A80036" points="1684.5,712.0085,1699.5,718.0085,1684.5,724.0085,1690.5,718.0085" style="stroke:#A80036;stroke-width:1.5;"/><line style="stroke:#A80036;stroke-width:1.5;" x1="720.75" x2="1693.5" y1="718.0085" y2="718.0085"/><text fill="#000000" font-family="sans-serif" font-size="19.5" font-style="italic" lengthAdjust="spacing" textLength="75" x="731.25" y="710.4152">commit</text><polygon fill="#A80036" points="1917,755.6805,1932,761.6805,1917,767.6805,1923,761.6805" style="stroke:#A80036;stroke-width:1.5;"/><line style="stroke:#A80036;stroke-width:1.5;" x1="1702.5" x2="1926" y1="761.6805" y2="761.6805"/><text fill="#000000" font-family="sans-serif" font-size="19.5" font-style="italic" lengthAdjust="spacing" textLength="196.5" x="1713" y="754.0871">insert/update/delete</text><polygon fill="#A80036" points="737.25,799.3524,722.25,805.3524,737.25,811.3524,731.25,805.3524" style="stroke:#A80036;stroke-width:1.5;"/><line style="stroke:#A80036;stroke-width:1.5;" x1="728.25" x2="1933.5" y1="805.3524" y2="805.3524"/><text fill="#000000" font-family="sans-serif" font-size="19.5" lengthAdjust="spacing" textLength="244.5" x="746.25" y="797.7591">inserted/updated/deleted</text><text fill="#000000" font-family="monospace" font-size="19.5" lengthAdjust="spacing" textLength="72" x="996.75" y="797.7591">LinePK</text><text fill="#000000" font-family="sans-serif" font-size="19.5" lengthAdjust="spacing" textLength="10.5" x="1068.75" y="797.7591">s</text><polygon fill="#A80036" points="1684.5,843.0244,1699.5,849.0244,1684.5,855.0244,1690.5,849.0244" style="stroke:#A80036;stroke-width:1.5;"/><line style="stroke:#A80036;stroke-width:1.5;" x1="713.25" x2="1693.5" y1="849.0244" y2="849.0244"/><text fill="#000000" font-family="sans-serif" font-size="19.5" font-style="italic" lengthAdjust="spacing" textLength="81" x="723.75" y="841.431">truncate</text><!--MD5=[546a4a0d9b18f382c2e389ba57f61e2e]
@startuml

control importLinesFlow as flow
control prepareLinesStep as prepare_step
control importLinesStep as import_step
control commitLinesStep as commit_step
participant LineRowReader as reader
database SourceDb as sdb
participant LineProcessor as processor
participant LineWriter as writer
database StagingTable as staging_table
database TargetTable as target_table

flow -> prepare_step
activate prepare_step

prepare_step -> staging_table : //truncate//
deactivate prepare_step

flow -> import_step
activate import_step

group Read all rows in chunks

    group Read and process chunk of N elements

        import_step -> reader : //read()//
        activate reader

        reader -> sdb : ""import_lines.sql""
        reader <- sdb : ""ResultSet""

        import_step <- reader :""LineRow"" | "null"
        deactivate reader

        import_step -> processor : //process(//""LineRow""//)//
        activate processor
        import_step <- - processor : ""PersistableLine""
        deactivate processor

    end

    import_step -> writer : //write(//""Chunk<PersistableLine>""//)//
    activate writer
    writer -> staging_table : JDBC batch insert
    import_step <- - writer
    deactivate writer

end

deactivate import_step

flow -> commit_step
activate commit_step

commit_step -> staging_table : //commit//
staging_table -> target_table : //insert/update/delete//
commit_step <- target_table : inserted/updated/deleted ""LinePK""s

commit_step -> staging_table : //truncate//
deactivate commit_step

@enduml

PlantUML version 1.2021.5(Sun Apr 25 14:20:28 EEST 2021)
(GPL source distribution)
Java Runtime: OpenJDK Runtime Environment
JVM: Dynamic Code Evolution 64-Bit Server VM
Default Encoding: UTF-8
Language: en
Country: US
--></g></svg>