<?xml version="1.0" encoding="UTF-8" standalone="no"?><svg xmlns="http://www.w3.org/2000/svg" xmlns:xlink="http://www.w3.org/1999/xlink" contentScriptType="application/ecmascript" contentStyleType="text/css" height="978px" preserveAspectRatio="none" style="width:2098px;height:978px;background:#FFFFFF;" version="1.1" viewBox="0 0 2098 978" width="2098.5px" zoomAndPan="magnify"><defs><filter height="300%" id="f19oymy3k13voy" width="300%" x="-1" y="-1"><feGaussianBlur result="blurOut" stdDeviation="3.0"/><feColorMatrix in="blurOut" result="blurOut2" type="matrix" values="0 0 0 0 0 0 0 0 0 0 0 0 0 0 0 0 0 0 .4 0"/><feOffset dx="6.0" dy="6.0" in="blurOut2" result="blurOut3"/><feBlend in="SourceGraphic" in2="blurOut3" mode="normal"/></filter></defs><g><rect fill="#FFFFFF" filter="url(#f19oymy3k13voy)" height="43.6719" style="stroke:#A80036;stroke-width:1.5;" width="15" x="294.75" y="124.9453"/><rect fill="#FFFFFF" filter="url(#f19oymy3k13voy)" height="475.7194" style="stroke:#A80036;stroke-width:1.5;" width="15" x="498.75" y="189.6172"/><rect fill="#FFFFFF" filter="url(#f19oymy3k13voy)" height="174.6877" style="stroke:#A80036;stroke-width:1.5;" width="15" x="700.5" y="674.3366"/><rect fill="#FFFFFF" filter="url(#f19oymy3k13voy)" height="131.0158" style="stroke:#A80036;stroke-width:1.5;" width="15" x="908.25" y="305.6331"/><rect fill="#FFFFFF" filter="url(#f19oymy3k13voy)" height="43.6719" style="stroke:#A80036;stroke-width:1.5;" width="15" x="1325.25" y="480.3208"/><rect fill="#FFFFFF" filter="url(#f19oymy3k13voy)" height="64.6719" style="stroke:#A80036;stroke-width:1.5;" width="15" x="1573.5" y="578.1647"/><rect fill="#FFFFFF" filter="url(#f19oymy3k13voy)" height="442.7194" style="stroke:#000000;stroke-width:3.0;" width="1499.25" x="385.5" y="212.1172"/><rect fill="#FFFFFF" filter="url(#f19oymy3k13voy)" height="287.7036" style="stroke:#000000;stroke-width:3.0;" width="1056.75" x="400.5" y="248.2892"/><line style="stroke:#A80036;stroke-width:1.5;stroke-dasharray:5.0,5.0;" x1="97.5" x2="97.5" y1="100.9453" y2="876.0244"/><line style="stroke:#A80036;stroke-width:1.5;stroke-dasharray:5.0,5.0;" x1="301.5" x2="301.5" y1="100.9453" y2="876.0244"/><line style="stroke:#A80036;stroke-width:1.5;stroke-dasharray:5.0,5.0;" x1="505.5" x2="505.5" y1="100.9453" y2="876.0244"/><line style="stroke:#A80036;stroke-width:1.5;stroke-dasharray:5.0,5.0;" x1="708" x2="708" y1="100.9453" y2="876.0244"/><line style="stroke:#A80036;stroke-width:1.5;stroke-dasharray:5.0,5.0;" x1="915" x2="915" y1="100.9453" y2="876.0244"/><line style="stroke:#A80036;stroke-width:1.5;stroke-dasharray:5.0,5.0;" x1="1151.25" x2="1151.25" y1="100.9453" y2="876.0244"/><line style="stroke:#A80036;stroke-width:1.5;stroke-dasharray:5.0,5.0;" x1="1332.75" x2="1332.75" y1="100.9453" y2="876.0244"/><line style="stroke:#A80036;stroke-width:1.5;stroke-dasharray:5.0,5.0;" x1="1580.25" x2="1580.25" y1="100.9453" y2="876.0244"/><line style="stroke:#A80036;stroke-width:1.5;stroke-dasharray:5.0,5.0;" x1="1794.75" x2="1794.75" y1="100.9453" y2="876.0244"/><line style="stroke:#A80036;stroke-width:1.5;stroke-dasharray:5.0,5.0;" x1="2026.5" x2="2026.5" y1="100.9453" y2="876.0244"/><text fill="#000000" font-family="sans-serif" font-size="21" lengthAdjust="spacing" textLength="172.5" x="7.5" y="95.9927">importLinksFlow</text><ellipse cx="98.25" cy="52.5" fill="#FEFECE" filter="url(#f19oymy3k13voy)" rx="18" ry="18" style="stroke:#A80036;stroke-width:3.0;"/><polygon fill="#A80036" points="92.25,34.5,101.25,27,98.25,34.5,101.25,42,92.25,34.5" style="stroke:#A80036;stroke-width:1.5;"/><text fill="#000000" font-family="sans-serif" font-size="21" lengthAdjust="spacing" textLength="172.5" x="7.5" y="894.017">importLinksFlow</text><ellipse cx="98.25" cy="922.9697" fill="#FEFECE" filter="url(#f19oymy3k13voy)" rx="18" ry="18" style="stroke:#A80036;stroke-width:3.0;"/><polygon fill="#A80036" points="92.25,904.9697,101.25,897.4697,98.25,904.9697,101.25,912.4697,92.25,904.9697" style="stroke:#A80036;stroke-width:1.5;"/><text fill="#000000" font-family="sans-serif" font-size="21" lengthAdjust="spacing" textLength="187.5" x="204" y="95.9927">prepareLinksStep</text><ellipse cx="302.25" cy="52.5" fill="#FEFECE" filter="url(#f19oymy3k13voy)" rx="18" ry="18" style="stroke:#A80036;stroke-width:3.0;"/><polygon fill="#A80036" points="296.25,34.5,305.25,27,302.25,34.5,305.25,42,296.25,34.5" style="stroke:#A80036;stroke-width:1.5;"/><text fill="#000000" font-family="sans-serif" font-size="21" lengthAdjust="spacing" textLength="187.5" x="204" y="894.017">prepareLinksStep</text><ellipse cx="302.25" cy="922.9697" fill="#FEFECE" filter="url(#f19oymy3k13voy)" rx="18" ry="18" style="stroke:#A80036;stroke-width:3.0;"/><polygon fill="#A80036" points="296.25,904.9697,305.25,897.4697,302.25,904.9697,305.25,912.4697,296.25,904.9697" style="stroke:#A80036;stroke-width:1.5;"/><text fill="#000000" font-family="sans-serif" font-size="21" lengthAdjust="spacing" textLength="172.5" x="415.5" y="95.9927">importLinksStep</text><ellipse cx="506.25" cy="52.5" fill="#FEFECE" filter="url(#f19oymy3k13voy)" rx="18" ry="18" style="stroke:#A80036;stroke-width:3.0;"/><polygon fill="#A80036" points="500.25,34.5,509.25,27,506.25,34.5,509.25,42,500.25,34.5" style="stroke:#A80036;stroke-width:1.5;"/><text fill="#000000" font-family="sans-serif" font-size="21" lengthAdjust="spacing" textLength="172.5" x="415.5" y="894.017">importLinksStep</text><ellipse cx="506.25" cy="922.9697" fill="#FEFECE" filter="url(#f19oymy3k13voy)" rx="18" ry="18" style="stroke:#A80036;stroke-width:3.0;"/><polygon fill="#A80036" points="500.25,904.9697,509.25,897.4697,506.25,904.9697,509.25,912.4697,500.25,904.9697" style="stroke:#A80036;stroke-width:1.5;"/><text fill="#000000" font-family="sans-serif" font-size="21" lengthAdjust="spacing" textLength="183" x="612" y="95.9927">commitLinksStep</text><ellipse cx="708" cy="52.5" fill="#FEFECE" filter="url(#f19oymy3k13voy)" rx="18" ry="18" style="stroke:#A80036;stroke-width:3.0;"/><polygon fill="#A80036" points="702,34.5,711,27,708,34.5,711,42,702,34.5" style="stroke:#A80036;stroke-width:1.5;"/><text fill="#000000" font-family="sans-serif" font-size="21" lengthAdjust="spacing" textLength="183" x="612" y="894.017">commitLinksStep</text><ellipse cx="708" cy="922.9697" fill="#FEFECE" filter="url(#f19oymy3k13voy)" rx="18" ry="18" style="stroke:#A80036;stroke-width:3.0;"/><polygon fill="#A80036" points="702,904.9697,711,897.4697,708,904.9697,711,912.4697,702,904.9697" style="stroke:#A80036;stroke-width:1.5;"/><rect fill="#FEFECE" filter="url(#f19oymy3k13voy)" height="45.4453" style="stroke:#A80036;stroke-width:2.25;" width="187.5" x="819" y="48"/><text fill="#000000" font-family="sans-serif" font-size="21" lengthAdjust="spacing" textLength="166.5" x="829.5" y="77.9927">LinkRowReader</text><rect fill="#FEFECE" filter="url(#f19oymy3k13voy)" height="45.4453" style="stroke:#A80036;stroke-width:2.25;" width="187.5" x="819" y="874.5244"/><text fill="#000000" font-family="sans-serif" font-size="21" lengthAdjust="spacing" textLength="166.5" x="829.5" y="904.517">LinkRowReader</text><text fill="#000000" font-family="sans-serif" font-size="21" lengthAdjust="spacing" textLength="105" x="1094.25" y="95.9927">SourceDb</text><path d="M1124.25,22.5 C1124.25,7.5 1151.25,7.5 1151.25,7.5 C1151.25,7.5 1178.25,7.5 1178.25,22.5 L1178.25,61.5 C1178.25,76.5 1151.25,76.5 1151.25,76.5 C1151.25,76.5 1124.25,76.5 1124.25,61.5 L1124.25,22.5 " fill="#FEFECE" filter="url(#f19oymy3k13voy)" style="stroke:#000000;stroke-width:2.25;"/><path d="M1124.25,22.5 C1124.25,37.5 1151.25,37.5 1151.25,37.5 C1151.25,37.5 1178.25,37.5 1178.25,22.5 " fill="none" style="stroke:#000000;stroke-width:2.25;"/><text fill="#000000" font-family="sans-serif" font-size="21" lengthAdjust="spacing" textLength="105" x="1094.25" y="894.017">SourceDb</text><path d="M1124.25,913.9697 C1124.25,898.9697 1151.25,898.9697 1151.25,898.9697 C1151.25,898.9697 1178.25,898.9697 1178.25,913.9697 L1178.25,952.9697 C1178.25,967.9697 1151.25,967.9697 1151.25,967.9697 C1151.25,967.9697 1124.25,967.9697 1124.25,952.9697 L1124.25,913.9697 " fill="#FEFECE" filter="url(#f19oymy3k13voy)" style="stroke:#000000;stroke-width:2.25;"/><path d="M1124.25,913.9697 C1124.25,928.9697 1151.25,928.9697 1151.25,928.9697 C1151.25,928.9697 1178.25,928.9697 1178.25,913.9697 " fill="none" style="stroke:#000000;stroke-width:2.25;"/><rect fill="#FEFECE" filter="url(#f19oymy3k13voy)" height="45.4453" style="stroke:#A80036;stroke-width:2.25;" width="213" x="1223.25" y="48"/><text fill="#000000" font-family="sans-serif" font-size="21" lengthAdjust="spacing" textLength="192" x="1233.75" y="77.9927">LinkRowProcessor</text><rect fill="#FEFECE" filter="url(#f19oymy3k13voy)" height="45.4453" style="stroke:#A80036;stroke-width:2.25;" width="213" x="1223.25" y="874.5244"/><text fill="#000000" font-family="sans-serif" font-size="21" lengthAdjust="spacing" textLength="192" x="1233.75" y="904.517">LinkRowProcessor</text><rect fill="#FEFECE" filter="url(#f19oymy3k13voy)" height="45.4453" style="stroke:#A80036;stroke-width:2.25;" width="241.5" x="1457.25" y="48"/><text fill="#000000" font-family="sans-serif" font-size="21" lengthAdjust="spacing" textLength="220.5" x="1467.75" y="77.9927">GenericImportWriter</text><rect fill="#FEFECE" filter="url(#f19oymy3k13voy)" height="45.4453" style="stroke:#A80036;stroke-width:2.25;" width="241.5" x="1457.25" y="874.5244"/><text fill="#000000" font-family="sans-serif" font-size="21" lengthAdjust="spacing" textLength="220.5" x="1467.75" y="904.517">GenericImportWriter</text><text fill="#000000" font-family="sans-serif" font-size="21" lengthAdjust="spacing" textLength="141" x="1719.75" y="95.9927">StagingTable</text><path d="M1767.75,22.5 C1767.75,7.5 1794.75,7.5 1794.75,7.5 C1794.75,7.5 1821.75,7.5 1821.75,22.5 L1821.75,61.5 C1821.75,76.5 1794.75,76.5 1794.75,76.5 C1794.75,76.5 1767.75,76.5 1767.75,61.5 L1767.75,22.5 " fill="#FEFECE" filter="url(#f19oymy3k13voy)" style="stroke:#000000;stroke-width:2.25;"/><path d="M1767.75,22.5 C1767.75,37.5 1794.75,37.5 1794.75,37.5 C1794.75,37.5 1821.75,37.5 1821.75,22.5 " fill="none" style="stroke:#000000;stroke-width:2.25;"/><text fill="#000000" font-family="sans-serif" font-size="21" lengthAdjust="spacing" textLength="141" x="1719.75" y="894.017">StagingTable</text><path d="M1767.75,913.9697 C1767.75,898.9697 1794.75,898.9697 1794.75,898.9697 C1794.75,898.9697 1821.75,898.9697 1821.75,913.9697 L1821.75,952.9697 C1821.75,967.9697 1794.75,967.9697 1794.75,967.9697 C1794.75,967.9697 1767.75,967.9697 1767.75,952.9697 L1767.75,913.9697 " fill="#FEFECE" filter="url(#f19oymy3k13voy)" style="stroke:#000000;stroke-width:2.25;"/><path d="M1767.75,913.9697 C1767.75,928.9697 1794.75,928.9697 1794.75,928.9697 C1794.75,928.9697 1821.75,928.9697 1821.75,913.9697 " fill="none" style="stroke:#000000;stroke-width:2.25;"/><text fill="#000000" font-family="sans-serif" font-size="21" lengthAdjust="spacing" textLength="130.5" x="1957.5" y="95.9927">TargetTable</text><path d="M2000.25,22.5 C2000.25,7.5 2027.25,7.5 2027.25,7.5 C2027.25,7.5 2054.25,7.5 2054.25,22.5 L2054.25,61.5 C2054.25,76.5 2027.25,76.5 2027.25,76.5 C2027.25,76.5 2000.25,76.5 2000.25,61.5 L2000.25,22.5 " fill="#FEFECE" filter="url(#f19oymy3k13voy)" style="stroke:#000000;stroke-width:2.25;"/><path d="M2000.25,22.5 C2000.25,37.5 2027.25,37.5 2027.25,37.5 C2027.25,37.5 2054.25,37.5 2054.25,22.5 " fill="none" style="stroke:#000000;stroke-width:2.25;"/><text fill="#000000" font-family="sans-serif" font-size="21" lengthAdjust="spacing" textLength="130.5" x="1957.5" y="894.017">TargetTable</text><path d="M2000.25,913.9697 C2000.25,898.9697 2027.25,898.9697 2027.25,898.9697 C2027.25,898.9697 2054.25,898.9697 2054.25,913.9697 L2054.25,952.9697 C2054.25,967.9697 2027.25,967.9697 2027.25,967.9697 C2027.25,967.9697 2000.25,967.9697 2000.25,952.9697 L2000.25,913.9697 " fill="#FEFECE" filter="url(#f19oymy3k13voy)" style="stroke:#000000;stroke-width:2.25;"/><path d="M2000.25,913.9697 C2000.25,928.9697 2027.25,928.9697 2027.25,928.9697 C2027.25,928.9697 2054.25,928.9697 2054.25,913.9697 " fill="none" style="stroke:#000000;stroke-width:2.25;"/><rect fill="#FFFFFF" filter="url(#f19oymy3k13voy)" height="43.6719" style="stroke:#A80036;stroke-width:1.5;" width="15" x="294.75" y="124.9453"/><rect fill="#FFFFFF" filter="url(#f19oymy3k13voy)" height="475.7194" style="stroke:#A80036;stroke-width:1.5;" width="15" x="498.75" y="189.6172"/><rect fill="#FFFFFF" filter="url(#f19oymy3k13voy)" height="174.6877" style="stroke:#A80036;stroke-width:1.5;" width="15" x="700.5" y="674.3366"/><rect fill="#FFFFFF" filter="url(#f19oymy3k13voy)" height="131.0158" style="stroke:#A80036;stroke-width:1.5;" width="15" x="908.25" y="305.6331"/><rect fill="#FFFFFF" filter="url(#f19oymy3k13voy)" height="43.6719" style="stroke:#A80036;stroke-width:1.5;" width="15" x="1325.25" y="480.3208"/><rect fill="#FFFFFF" filter="url(#f19oymy3k13voy)" height="64.6719" style="stroke:#A80036;stroke-width:1.5;" width="15" x="1573.5" y="578.1647"/><polygon fill="#A80036" points="276.75,118.9453,291.75,124.9453,276.75,130.9453,282.75,124.9453" style="stroke:#A80036;stroke-width:1.5;"/><line style="stroke:#A80036;stroke-width:1.5;" x1="98.25" x2="285.75" y1="124.9453" y2="124.9453"/><polygon fill="#A80036" points="1776.75,162.6172,1791.75,168.6172,1776.75,174.6172,1782.75,168.6172" style="stroke:#A80036;stroke-width:1.5;"/><line style="stroke:#A80036;stroke-width:1.5;" x1="302.25" x2="1785.75" y1="168.6172" y2="168.6172"/><text fill="#000000" font-family="sans-serif" font-size="19.5" font-style="italic" lengthAdjust="spacing" textLength="81" x="312.75" y="161.0239">truncate</text><polygon fill="#A80036" points="480.75,183.6172,495.75,189.6172,480.75,195.6172,486.75,189.6172" style="stroke:#A80036;stroke-width:1.5;"/><line style="stroke:#A80036;stroke-width:1.5;" x1="98.25" x2="489.75" y1="189.6172" y2="189.6172"/><path d="M385.5,212.1172 L714,212.1172 L714,222.6172 L699,237.6172 L385.5,237.6172 L385.5,212.1172 " fill="#EEEEEE" style="stroke:#000000;stroke-width:1.5;"/><rect fill="none" height="442.7194" style="stroke:#000000;stroke-width:3.0;" width="1499.25" x="385.5" y="212.1172"/><text fill="#000000" font-family="sans-serif" font-size="19.5" font-weight="bold" lengthAdjust="spacing" textLength="261" x="408" y="231.6958">Read all rows in chunks</text><path d="M400.5,248.2892 L901.5,248.2892 L901.5,258.7892 L886.5,273.7892 L400.5,273.7892 L400.5,248.2892 " fill="#EEEEEE" style="stroke:#000000;stroke-width:1.5;"/><rect fill="none" height="287.7036" style="stroke:#000000;stroke-width:3.0;" width="1056.75" x="400.5" y="248.2892"/><text fill="#000000" font-family="sans-serif" font-size="19.5" font-weight="bold" lengthAdjust="spacing" textLength="433.5" x="423" y="267.8678">Read and process chunk of N elements</text><polygon fill="#A80036" points="890.25,299.6331,905.25,305.6331,890.25,311.6331,896.25,305.6331" style="stroke:#A80036;stroke-width:1.5;"/><line style="stroke:#A80036;stroke-width:1.5;" x1="513.75" x2="899.25" y1="305.6331" y2="305.6331"/><text fill="#000000" font-family="sans-serif" font-size="19.5" font-style="italic" lengthAdjust="spacing" textLength="58.5" x="524.25" y="298.0397">read()</text><polygon fill="#A80036" points="1133.25,343.305,1148.25,349.305,1133.25,355.305,1139.25,349.305" style="stroke:#A80036;stroke-width:1.5;"/><line style="stroke:#A80036;stroke-width:1.5;" x1="923.25" x2="1142.25" y1="349.305" y2="349.305"/><text fill="#000000" font-family="monospace" font-size="19.5" lengthAdjust="spacing" textLength="192" x="933.75" y="341.7116">import_links.sql</text><polygon fill="#A80036" points="939.75,386.9769,924.75,392.9769,939.75,398.9769,933.75,392.9769" style="stroke:#A80036;stroke-width:1.5;"/><line style="stroke:#A80036;stroke-width:1.5;" x1="930.75" x2="1149.75" y1="392.9769" y2="392.9769"/><text fill="#000000" font-family="monospace" font-size="19.5" lengthAdjust="spacing" textLength="108" x="948.75" y="385.3836">ResultSet</text><polygon fill="#A80036" points="530.25,430.6489,515.25,436.6489,530.25,442.6489,524.25,436.6489" style="stroke:#A80036;stroke-width:1.5;"/><line style="stroke:#A80036;stroke-width:1.5;" x1="521.25" x2="914.25" y1="436.6489" y2="436.6489"/><text fill="#000000" font-family="monospace" font-size="19.5" lengthAdjust="spacing" textLength="84" x="539.25" y="429.0555">LinkRow</text><text fill="#000000" font-family="sans-serif" font-size="19.5" lengthAdjust="spacing" textLength="66" x="629.25" y="429.0555">| "null"</text><polygon fill="#A80036" points="1307.25,474.3208,1322.25,480.3208,1307.25,486.3208,1313.25,480.3208" style="stroke:#A80036;stroke-width:1.5;"/><line style="stroke:#A80036;stroke-width:1.5;" x1="513.75" x2="1316.25" y1="480.3208" y2="480.3208"/><text fill="#000000" font-family="sans-serif" font-size="19.5" font-style="italic" lengthAdjust="spacing" textLength="82.5" x="524.25" y="472.7275">process(</text><text fill="#000000" font-family="monospace" font-size="19.5" lengthAdjust="spacing" textLength="84" x="606.75" y="472.7275">LinkRow</text><text fill="#000000" font-family="sans-serif" font-size="19.5" font-style="italic" lengthAdjust="spacing" textLength="7.5" x="690.75" y="472.7275">)</text><polygon fill="#A80036" points="530.25,517.9927,515.25,523.9927,530.25,529.9927,524.25,523.9927" style="stroke:#A80036;stroke-width:1.5;"/><line style="stroke:#A80036;stroke-width:1.5;stroke-dasharray:2.0,2.0;" x1="521.25" x2="1331.25" y1="523.9927" y2="523.9927"/><text fill="#000000" font-family="monospace" font-size="19.5" lengthAdjust="spacing" textLength="180" x="539.25" y="516.3994">PersistableLink</text><polygon fill="#A80036" points="1555.5,572.1647,1570.5,578.1647,1555.5,584.1647,1561.5,578.1647" style="stroke:#A80036;stroke-width:1.5;"/><line style="stroke:#A80036;stroke-width:1.5;" x1="513.75" x2="1564.5" y1="578.1647" y2="578.1647"/><text fill="#000000" font-family="sans-serif" font-size="19.5" font-style="italic" lengthAdjust="spacing" textLength="57" x="524.25" y="570.5713">write(</text><text fill="#000000" font-family="monospace" font-size="19.5" lengthAdjust="spacing" textLength="264" x="581.25" y="570.5713">Chunk&lt;PersistableLink&gt;</text><text fill="#000000" font-family="sans-serif" font-size="19.5" font-style="italic" lengthAdjust="spacing" textLength="7.5" x="845.25" y="570.5713">)</text><polygon fill="#A80036" points="1776.75,615.8366,1791.75,621.8366,1776.75,627.8366,1782.75,621.8366" style="stroke:#A80036;stroke-width:1.5;"/><line style="stroke:#A80036;stroke-width:1.5;" x1="1588.5" x2="1785.75" y1="621.8366" y2="621.8366"/><text fill="#000000" font-family="sans-serif" font-size="19.5" lengthAdjust="spacing" textLength="169.5" x="1599" y="614.2433">JDBC batch insert</text><polygon fill="#A80036" points="530.25,636.8366,515.25,642.8366,530.25,648.8366,524.25,642.8366" style="stroke:#A80036;stroke-width:1.5;"/><line style="stroke:#A80036;stroke-width:1.5;stroke-dasharray:2.0,2.0;" x1="521.25" x2="1579.5" y1="642.8366" y2="642.8366"/><polygon fill="#A80036" points="682.5,668.3366,697.5,674.3366,682.5,680.3366,688.5,674.3366" style="stroke:#A80036;stroke-width:1.5;"/><line style="stroke:#A80036;stroke-width:1.5;" x1="98.25" x2="691.5" y1="674.3366" y2="674.3366"/><polygon fill="#A80036" points="1776.75,712.0085,1791.75,718.0085,1776.75,724.0085,1782.75,718.0085" style="stroke:#A80036;stroke-width:1.5;"/><line style="stroke:#A80036;stroke-width:1.5;" x1="715.5" x2="1785.75" y1="718.0085" y2="718.0085"/><text fill="#000000" font-family="sans-serif" font-size="19.5" font-style="italic" lengthAdjust="spacing" textLength="75" x="726" y="710.4152">commit</text><polygon fill="#A80036" points="2009.25,755.6805,2024.25,761.6805,2009.25,767.6805,2015.25,761.6805" style="stroke:#A80036;stroke-width:1.5;"/><line style="stroke:#A80036;stroke-width:1.5;" x1="1794.75" x2="2018.25" y1="761.6805" y2="761.6805"/><text fill="#000000" font-family="sans-serif" font-size="19.5" font-style="italic" lengthAdjust="spacing" textLength="196.5" x="1805.25" y="754.0871">insert/update/delete</text><polygon fill="#A80036" points="732,799.3524,717,805.3524,732,811.3524,726,805.3524" style="stroke:#A80036;stroke-width:1.5;"/><line style="stroke:#A80036;stroke-width:1.5;" x1="723" x2="2025.75" y1="805.3524" y2="805.3524"/><text fill="#000000" font-family="sans-serif" font-size="19.5" lengthAdjust="spacing" textLength="244.5" x="741" y="797.7591">inserted/updated/deleted</text><text fill="#000000" font-family="monospace" font-size="19.5" lengthAdjust="spacing" textLength="72" x="991.5" y="797.7591">LinkPK</text><text fill="#000000" font-family="sans-serif" font-size="19.5" lengthAdjust="spacing" textLength="10.5" x="1063.5" y="797.7591">s</text><polygon fill="#A80036" points="1776.75,843.0244,1791.75,849.0244,1776.75,855.0244,1782.75,849.0244" style="stroke:#A80036;stroke-width:1.5;"/><line style="stroke:#A80036;stroke-width:1.5;" x1="708" x2="1785.75" y1="849.0244" y2="849.0244"/><text fill="#000000" font-family="sans-serif" font-size="19.5" font-style="italic" lengthAdjust="spacing" textLength="81" x="718.5" y="841.431">truncate</text><!--MD5=[9de0f9c95bb749cfdd37f20f18f43779]
@startuml

control importLinksFlow as flow
control prepareLinksStep as prepare_step
control importLinksStep as import_step
control commitLinksStep as commit_step
participant LinkRowReader as reader
database SourceDb as sdb
participant LinkRowProcessor as processor
participant GenericImportWriter as writer
database StagingTable as staging_table
database TargetTable as target_table

flow -> prepare_step
activate prepare_step

prepare_step -> staging_table : //truncate//
deactivate prepare_step

flow -> import_step
activate import_step

group Read all rows in chunks

    group Read and process chunk of N elements

        import_step -> reader : //read()//
        activate reader

        reader -> sdb : ""import_links.sql""
        reader <- sdb : ""ResultSet""

        import_step <- reader :""LinkRow"" | "null"
        deactivate reader

        import_step -> processor : //process(//""LinkRow""//)//
        activate processor
        import_step <- - processor : ""PersistableLink""
        deactivate processor

    end

    import_step -> writer : //write(//""Chunk<PersistableLink>""//)//
    activate writer
    writer -> staging_table : JDBC batch insert
    import_step <- - writer
    deactivate writer

end

deactivate import_step

flow -> commit_step
activate commit_step

commit_step -> staging_table : //commit//
staging_table -> target_table : //insert/update/delete//
commit_step <- target_table : inserted/updated/deleted ""LinkPK""s

commit_step -> staging_table : //truncate//
deactivate commit_step

@enduml

PlantUML version 1.2021.7(Sun May 23 15:40:07 EEST 2021)
(GPL source distribution)
Java Runtime: OpenJDK Runtime Environment
JVM: Dynamic Code Evolution 64-Bit Server VM
Default Encoding: UTF-8
Language: en
Country: US
--></g></svg>